<?xml version="1.0" encoding="UTF-8" standalone="yes"?>
<!--
  SPDX-FileCopyrightText: © 2014–2021, Nicolae Berbece <nick@thoseawesomeguys.com>

  SPDX-License-Identifier: CC0-1.0
-->
<svg id="gamepad-button-r2" height="24" version="1.1" viewBox="0 0 24 24"
     width="24" xmlns="http://www.w3.org/2000/svg">
 <path fill="currentColor" stroke="currentColor" stroke-width="0.05"
  d="M  2.000, 20.000
     V  8.000
     q  0.000, -1.650  1.175,-2.825
     T  6.000,  4.000
     h 12.000
     q  1.650,  0.000  2.825, 1.175
     T 22.000,  8.000
     v 12.000 z
     m  4.250, -4.425
     h  1.375       V 13.050
     h  0.925
     l  1.825,  2.525
     H 12.000
     L  9.950, 12.850
     q  0.700, -0.275  1.063,-0.787
     t  0.362, -1.263
     q  0.000, -1.125 -0.638,-1.675
     t -1.987, -0.550
     h -2.500 z
     M  7.625, 12.000
     V  9.800       h  1.150
     q  0.650,  0.000  0.925, 0.275
     t  0.275,  0.800
     q  0.000,  0.550 -0.325, 0.838
     t -0.900,  0.287 z
     m  5.475,  3.600
     H 18.000       v -1.225
     h -3.025       V 14.300
     l  1.475, -1.375
     q  0.825, -0.800  1.088,-1.263
     t  0.262, -1.112
     q  0.000, -0.975 -0.650,-1.562
     t -1.700, -0.588
     q -0.925,  0.000 -1.525, 0.463
     t -0.950,  1.437
     l  1.175,  0.450
     q  0.275, -0.600  0.538,-0.825
     T 15.400,  9.700
     q  0.425,  0.000  0.700, 0.275
     t  0.275,  0.675
     q  0.000,  0.425 -0.250, 0.775
     t -0.875,  0.950
     L 13.100, 14.500 z" />
</svg>
