<?xml version="1.0" encoding="UTF-8" standalone="yes"?>
<!--
  SPDX-FileCopyrightText: © 2014–2021, Nicolae Berbece <nick@thoseawesomeguys.com>

  SPDX-License-Identifier: CC0-1.0
-->
<svg id="gamepad-stick-l3" height="24" version="1.1" viewBox="0 0 24 24"
     width="24" xmlns="http://www.w3.org/2000/svg">
 <path fill="currentColor" stroke="currentColor" stroke-width="0.05"
  d="M 12.000, 5.000
     L  9.000, 1.000
     h  6.000 z
     m  5.000,12.350
     V 20.000
     q  0.000, 0.825 -0.587, 1.413
     T 15.000,22.000
     H  9.000
     q -0.825, 0.000 -1.412,-0.587
     T  7.000,20.000
     v -2.650
     q -2.275,-0.800 -3.637,-2.187
     T  2.000,12.075
     q  0.000,-2.525  2.913,-4.300
     T 12.000, 6.000
     t  7.088, 1.775
     t  2.912, 4.300
     q  0.000, 1.700 -1.362, 3.088
     T 17.000,17.350
     m -6.825,-2.700
     h  1.000      v -1.800
     h  0.700
     l  1.300, 1.800
     h  1.200
     L 12.850,12.700
     q  0.500,-0.175  0.763,-0.537
     t  0.262,-0.913
     q  0.000,-0.750 -0.488,-1.175
     t -1.262,-0.425
     h -1.950 z
     m  1.000,-2.550
     v -1.575      h  0.775
     q  0.400, 0.000  0.650, 0.212
     t  0.250, 0.588
     q  0.000, 0.400 -0.250, 0.588
     t -0.675, 0.187 z" />
</svg>
