<?xml version="1.0" encoding="UTF-8" standalone="yes"?>
<!--
  SPDX-FileCopyrightText: © 2014–2021, Nicolae Berbece <nick@thoseawesomeguys.com>

  SPDX-License-Identifier: CC0-1.0
-->
<svg id="gamepad-button-r1" height="24" version="1.1" viewBox="0 0 24 24"
     width="24" xmlns="http://www.w3.org/2000/svg">
 <path fill="currentColor" stroke="currentColor" stroke-width="0.05"
  d="M 22.000, 4.000
     v 12.000
     q  0.000, 1.650 -1.175, 2.825
     T 18.000,20.000
     H  6.000
     q -1.650, 0.000 -2.825,-1.175
     T  2.000,16.000
     V  4.000 z
     m -6.700,11.500
     h  1.375      v -7.000
     h -0.925
     l -2.475, 1.800
     l  0.725, 0.975
     l  1.300,-0.975 z
     m -7.975, 0.000
     H  8.700      v -2.550
     h  0.900
     l  1.825, 2.550
     h  1.625
     l -2.025,-2.725
     q  0.700,-0.275  1.063,-0.787
     t  0.362,-1.263
     q  0.000,-1.125 -0.662,-1.675
     T  9.775, 8.500
     h -2.450 z
     M  8.700,11.925
     V  9.700      h  1.125
     q  0.650, 0.000  0.938, 0.288
     t  0.287, 0.812
     q  0.000, 0.550 -0.337, 0.838
     t -0.913, 0.287 z" />
</svg>
