<?xml version="1.0" encoding="UTF-8" standalone="yes"?>
<!--
  SPDX-FileCopyrightText: © 2014–2021, Nicolae Berbece <nick@thoseawesomeguys.com>

  SPDX-License-Identifier: CC0-1.0
-->
<svg id="gamepad-button-select" height="24" version="1.1" viewBox="0 0 40.131 24"
     width="40.131" xmlns="http://www.w3.org/2000/svg">
 <path id="1" fill="#313131" stroke="none" stroke-width="0.116"
  d="m -226.308, 341.601
     v   -0.075
     q    0.000,  -1.226 -0.867,-2.088
     q   -0.862,  -0.867 -2.094,-0.867
     h   -4.239
     q   -1.226,   0.000 -2.088, 0.867
     q   -0.867,   0.862 -0.867, 2.088
     v    0.075        h  0.006
     q    0.035,   1.162  0.862, 1.989
     q    0.862,   0.867  2.088, 0.867
     h    4.239
     q    0.954,   0.000  1.700,-0.532
     q    0.208,  -0.145  0.393,-0.335
     q    0.827,  -0.827  0.867,-1.989
     m   -0.914,  -0.069
     v    0.087
     q   -0.040,   0.769 -0.544, 1.313
     q   -0.544,   0.590 -1.319, 0.590
     h   -4.603
     q   -0.769,   0.000 -1.313,-0.590
     q   -0.503,  -0.544 -0.538,-1.313
     h   -0.012        v -0.087
     q    0.000,  -0.839  0.549,-1.428
     q    0.544,  -0.590  1.313,-0.590
     h    4.603
     q    0.775,   0.000  1.319, 0.590
     q    0.544,   0.590  0.544, 1.428 z" />
 <path id="2" fill="#4f4f4f" stroke="none" stroke-width="0.116"
  d="m -227.221, 341.618
     v   -0.087
     q    0.000,  -0.839 -0.544,-1.428
     q   -0.544,  -0.590 -1.319,-0.590
     h   -4.603
     q   -0.769,   0.000 -1.313, 0.590
     q   -0.549,   0.590 -0.549, 1.428
     v    0.087        h  0.012
     q    0.035,   0.769  0.538, 1.313
     q    0.544,   0.590  1.313, 0.590
     h    4.603
     q    0.775,   0.000  1.319,-0.590
     q    0.503,  -0.544  0.544,-1.313
     m   -5.216,  -0.723
     h    0.301        v  1.081
     h    0.549        v  0.278
     h   -0.850        v -1.359
     m    1.330,   0.278
     v    0.254        h  0.590
     v    0.272        h -0.590
     v    0.278        h  0.654
     v    0.278        h -0.954
     v   -1.359        h  0.925
     v    0.278        h -0.625
     m    1.243,   0.087
     q   -0.052,   0.064 -0.081, 0.145
     q   -0.029,   0.081 -0.029, 0.168
     q    0.000,   0.098  0.029, 0.179
     q    0.029,   0.075  0.081, 0.139
     q    0.052,   0.058  0.121, 0.087
     q    0.069,   0.035  0.150, 0.035
     q    0.092,   0.000  0.162,-0.040
     q    0.069,  -0.035  0.116,-0.104
     l    0.249,   0.185
     q   -0.081,   0.121 -0.214, 0.179
     q   -0.133,   0.058 -0.272, 0.058
     q   -0.162,   0.000 -0.295,-0.052
     q   -0.133,  -0.052 -0.231,-0.145
     q   -0.098,  -0.087 -0.156,-0.226
     q   -0.052,  -0.133 -0.052,-0.295
     q    0.000,  -0.156  0.052,-0.295
     q    0.058,  -0.133  0.156,-0.226
     q    0.098,  -0.087  0.231,-0.139
     q    0.133,  -0.052  0.295,-0.052
     q    0.052,   0.000  0.121, 0.012
     q    0.058,   0.012  0.116, 0.035
     q    0.064,   0.023  0.121, 0.064
     q    0.052,   0.035  0.098, 0.092
     l   -0.231,   0.185
     q   -0.046,  -0.052 -0.104,-0.081
     q   -0.069,  -0.029 -0.150,-0.029
     q   -0.087,   0.000 -0.156, 0.035
     q   -0.075,   0.029 -0.127, 0.087
     m    0.839,  -0.098
     v   -0.266        h  1.070
     v    0.266        h -0.387
     v    1.093        h -0.295
     v   -1.093        h -0.387
     m   -5.465,  -0.272
     q    0.098,  -0.029  0.197,-0.029
     q    0.116,   0.000  0.220, 0.035
     q    0.110,   0.035  0.197, 0.110
     l   -0.208,   0.220
     q   -0.035,  -0.046 -0.098,-0.064
     q   -0.064,  -0.023 -0.116,-0.023
     q   -0.035,   0.000 -0.069, 0.006
     q   -0.035,   0.012 -0.064, 0.023
     q   -0.029,   0.017 -0.052, 0.046
     q   -0.017,   0.029 -0.017, 0.064
     q    0.000,   0.058  0.046, 0.092
     q    0.046,   0.035  0.116, 0.058
     q    0.075,   0.023  0.150, 0.046
     q    0.081,   0.023  0.150, 0.064
     q    0.069,   0.040  0.116, 0.116
     q    0.046,   0.069  0.046, 0.191
     q    0.000,   0.110 -0.040, 0.197
     q   -0.046,   0.081 -0.116, 0.133
     q   -0.069,   0.058 -0.168, 0.087
     q   -0.092,   0.029 -0.197, 0.029
     q   -0.133,   0.000 -0.243,-0.040
     q   -0.116,  -0.040 -0.214,-0.133
     l    0.214,  -0.231
     q    0.046,   0.058  0.116, 0.092
     q    0.069,   0.035  0.145, 0.035
     q    0.035,   0.000  0.075,-0.006
     q    0.035,  -0.012  0.064,-0.029
     q    0.029,  -0.017  0.052,-0.040
     q    0.012,  -0.035  0.012,-0.069
     q    0.000,  -0.058 -0.046,-0.092
     q   -0.040,  -0.040 -0.116,-0.064
     q   -0.069,  -0.023 -0.156,-0.046
     q   -0.075,  -0.023 -0.150,-0.069
     q   -0.069,  -0.046 -0.121,-0.110
     q   -0.040,  -0.069 -0.040,-0.185
     q    0.000,  -0.110  0.040,-0.191
     q    0.040,  -0.081  0.116,-0.139
     q    0.069,  -0.052  0.162,-0.081
     m    1.770,   0.006
     v    0.278        h -0.625
     v    0.254        h  0.590
     v    0.272        h -0.590
     v    0.278        h  0.654
     v    0.278        h -0.954
     v   -1.359 z" />
 <path id="3" fill="#999" stroke="none" stroke-width="0.116"
  d="m -232.721, 341.173
     v   -0.278        h -0.925
     v    1.359        h  0.954
     v   -0.278        h -0.654
     v   -0.278        h  0.590
     v   -0.272        h -0.590
     v   -0.254        h  0.625
     m   -1.573,  -0.312
     q   -0.098,   0.000 -0.197, 0.029
     q   -0.092,   0.029 -0.162, 0.081
     q   -0.075,   0.058 -0.116, 0.139
     q   -0.040,   0.081 -0.040, 0.191
     q    0.000,   0.116  0.040, 0.185
     q    0.052,   0.064  0.121, 0.110
     q    0.075,   0.046  0.150, 0.069
     q    0.087,   0.023  0.156, 0.046
     q    0.075,   0.023  0.116, 0.064
     q    0.046,   0.035  0.046, 0.092
     q    0.000,   0.035 -0.012, 0.069
     q   -0.023,   0.023 -0.052, 0.040
     q   -0.029,   0.017 -0.064, 0.029
     q   -0.040,   0.006 -0.075, 0.006
     q   -0.075,   0.000 -0.145,-0.035
     q   -0.069,  -0.035 -0.116,-0.092
     l   -0.214,   0.231
     q    0.098,   0.092  0.214, 0.133
     q    0.110,   0.040  0.243, 0.040
     q    0.104,   0.000  0.197,-0.029
     q    0.098,  -0.029  0.168,-0.087
     q    0.069,  -0.052  0.116,-0.133
     q    0.040,  -0.087  0.040,-0.197
     q    0.000,  -0.121 -0.046,-0.191
     q   -0.046,  -0.075 -0.116,-0.116
     q   -0.069,  -0.040 -0.150,-0.064
     q   -0.075,  -0.023 -0.150,-0.046
     q   -0.069,  -0.023 -0.116,-0.058
     q   -0.046,  -0.035 -0.046,-0.092
     q    0.000,  -0.035  0.017,-0.064
     q    0.023,  -0.029  0.052,-0.046
     q    0.029,  -0.012  0.064,-0.023
     q    0.035,  -0.006  0.069,-0.006
     q    0.052,   0.000  0.116, 0.023
     q    0.064,   0.017  0.098, 0.064
     l    0.208,  -0.220
     q   -0.087,  -0.075 -0.197,-0.110
     q   -0.104,  -0.035 -0.220,-0.035
     m    5.269,   0.035
     v    0.266        h  0.387
     v    1.093        h  0.295
     v   -1.093        h  0.387
     v   -0.266        h -1.070
     m   -0.920,   0.509
     q    0.029,  -0.081  0.081,-0.145
     q    0.052,  -0.058  0.127,-0.087
     q    0.069,  -0.035  0.156,-0.035
     q    0.081,   0.000  0.150, 0.029
     q    0.058,   0.029  0.104, 0.081
     l    0.231,  -0.185
     q   -0.046,  -0.058 -0.098,-0.092
     q   -0.058,  -0.040 -0.121,-0.064
     q   -0.058,  -0.023 -0.116,-0.035
     q   -0.069,  -0.012 -0.121,-0.012
     q   -0.162,   0.000 -0.295, 0.052
     q   -0.133,   0.052 -0.231, 0.139
     q   -0.098,   0.092 -0.156, 0.226
     q   -0.052,   0.139 -0.052, 0.295
     q    0.000,   0.162  0.052, 0.295
     q    0.058,   0.139  0.156, 0.226
     q    0.098,   0.092  0.231, 0.145
     q    0.133,   0.052  0.295, 0.052
     q    0.139,   0.000  0.272,-0.058
     q    0.133,  -0.058  0.214,-0.179
     l   -0.249,  -0.185
     q   -0.046,   0.069 -0.116, 0.104
     q   -0.069,   0.040 -0.162, 0.040
     q   -0.081,   0.000 -0.150,-0.035
     q   -0.069,  -0.029 -0.121,-0.087
     q   -0.052,  -0.064 -0.081,-0.139
     q   -0.029,  -0.081 -0.029,-0.179
     q    0.000,  -0.087  0.029,-0.168
     m   -1.162,   0.023
     v   -0.254        h  0.625
     v   -0.278        h -0.925
     v    1.359        h  0.954
     v   -0.278        h -0.654
     v   -0.278        h  0.590
     v   -0.272        h -0.590
     m   -1.029,  -0.532
     h   -0.301        v  1.359
     h    0.850        v -0.278
     h   -0.549 z" />
 <path id="4" fill="none" stroke="#202020" stroke-linecap="round"
       stroke-linejoin="round" stroke-width="0.463"
  d="m -236.463, 341.601
     v   -0.075
     q    0.000,  -1.226  0.867,-2.088
     q    0.862,  -0.867  2.088,-0.867
     h    4.239
     q    1.232,   0.000  2.094, 0.867
     q    0.867,   0.862  0.867, 2.088
     v    0.075
     q   -0.040,   1.162 -0.867, 1.989
     q   -0.185,   0.191 -0.393, 0.335
     q   -0.746,   0.532 -1.700, 0.532
     h   -4.239
     q   -1.226,   0.000 -2.088,-0.867
     q   -0.827,  -0.827 -0.862,-1.990" />
 <path id="5" fill="none" stroke="#626262" stroke-linecap="round"
       stroke-linejoin="round" stroke-width="0.463"
  d="m -235.549, 341.62
     v   -0.087
     q    0.000,  -0.839  0.549,-1.428
     q    0.544,  -0.590  1.313,-0.590
     h    4.603
     q    0.775,   0.000  1.319, 0.590
     q    0.544   ,0.590  0.544, 1.428
     v    0.087
     q   -0.040,   0.769 -0.544, 1.313
     q   -0.544,   0.590 -1.319, 0.590
     h   -4.603
     q   -0.769,   0.000 -1.313, -0.590
     q   -0.503,  -0.544 -0.538, -1.313" />
</svg>
