<?xml version="1.0" encoding="UTF-8" standalone="yes"?>
<!--
  SPDX-FileCopyrightText: © 2014–2021, Nicolae Berbece <nick@thoseawesomeguys.com>

  SPDX-License-Identifier: CC0-1.0
-->
<svg id="gamepad-button-start" height="24" version="1.1" viewBox="0 0 40.131 24"
     width="40.131" xmlns="http://www.w3.org/2000/svg">
 <path id="1" fill="#313131" stroke="none" stroke-width="0.116"
  d="m -254.565,341.601
     v   -0.075
     q    0.000, -1.226 -0.867,-2.088
     q   -0.862, -0.867 -2.094,-0.867
     h   -4.239
     q   -1.226,  0.000 -2.088, 0.867
     q   -0.867,  0.862 -0.867, 2.088
     v    0.075       h  0.006
     q    0.035,  1.162  0.862, 1.989
     q    0.862,  0.867  2.088, 0.867
     h    4.239
     q    0.954,  0.000  1.700,-0.532
     q    0.208, -0.145  0.393,-0.335
     q    0.827, -0.827  0.867,-1.989
     m   -0.914, -0.069
     v    0.087
     q   -0.040,  0.769 -0.544, 1.313
     q   -0.544,  0.590 -1.319, 0.590
     h   -4.603
     q   -0.769,  0.000 -1.313,-0.590
     q   -0.503, -0.544 -0.538,-1.313
     h   -0.012       v -0.087
     q    0.000, -0.839  0.549,-1.428
     q    0.544, -0.590  1.313,-0.590
     h    4.603
     q    0.775,  0.000  1.319, 0.590
     q    0.544,  0.590  0.544, 1.428 z" />
 <path id="2" fill="#4f4f4f" stroke="none" stroke-width="0.116"
  d="m -255.479,341.618
     v   -0.087
     q    0.000, -0.839 -0.544,-1.428
     q   -0.544, -0.590 -1.319,-0.590
     h   -4.603
     q   -0.769,  0.000 -1.313, 0.590
     q   -0.549,  0.590 -0.549, 1.428
     v    0.087       h  0.012
     q    0.035,  0.769  0.538, 1.313
     q    0.544,  0.590  1.313, 0.590
     h    4.603
     q    0.775,  0.000  1.319,-0.590
     q    0.503, -0.544  0.544,-1.313
     m   -4.476, -0.815
     h    0.289
     l    0.682,  1.579
     h   -0.387
     l   -0.145, -0.335
     h   -0.613
     l   -0.133,  0.335
     h   -0.376
     l    0.682, -1.579
     m   -0.497,  0.000
     v    0.307       h -0.451
     v    1.272       h -0.347
     v   -1.272       h -0.451
     v   -0.307       h  1.249
     m    2.244,  0.000
     q    0.121,  0.000  0.231, 0.023
     q    0.110,  0.023  0.191, 0.075
     q    0.081,  0.052  0.133, 0.145
     q    0.040,  0.098  0.040, 0.231
     q    0.000,  0.173 -0.081, 0.289
     q   -0.092,  0.121 -0.254, 0.150
     l    0.399,  0.665
     h   -0.416
     l   -0.335, -0.630
     h   -0.168       v  0.630
     h   -0.347       v -1.579
     h    0.607
     m    0.648,  0.307
     v   -0.307       h  1.255
     v    0.307       h -0.451
     v    1.272       h -0.347
     v   -1.272       h -0.457
     m   -5.297, -0.064
     q    0.046, -0.092  0.139,-0.156
     q    0.081, -0.064  0.185,-0.098
     q    0.116, -0.035  0.231,-0.035
     q    0.133,  0.000  0.260, 0.046
     q    0.121,  0.035  0.231, 0.121
     l   -0.243,  0.260
     q   -0.040, -0.052 -0.121,-0.075
     q   -0.069, -0.023 -0.133,-0.023
     q   -0.040,  0.000 -0.075, 0.006
     q   -0.040,  0.012 -0.081, 0.029
     q   -0.035,  0.017 -0.058, 0.052
     q   -0.023,  0.029 -0.023, 0.075
     q    0.000,  0.064  0.052, 0.104
     q    0.058,  0.046  0.139, 0.069
     q    0.081,  0.029  0.174, 0.052
     q    0.098,  0.023  0.179, 0.075
     q    0.075,  0.046  0.133, 0.133
     q    0.058,  0.087  0.058, 0.220
     q    0.000,  0.133 -0.058, 0.231
     q   -0.046,  0.098 -0.127, 0.162
     q   -0.081,  0.069 -0.197, 0.098
     q   -0.110,  0.029 -0.226, 0.029
     q   -0.162,  0.000 -0.289,-0.040
     q   -0.139, -0.052 -0.249,-0.156
     l    0.249, -0.266
     q    0.052,  0.064  0.133, 0.104
     q    0.081,  0.040  0.174, 0.040
     q    0.040,  0.000  0.087,-0.012
     q    0.040, -0.006  0.075,-0.029
     q    0.035, -0.017  0.052,-0.052
     q    0.023, -0.035  0.023,-0.075
     q    0.000, -0.075 -0.059,-0.110
     q   -0.052, -0.046 -0.133,-0.075
     q   -0.081, -0.023 -0.179,-0.052
     q   -0.092, -0.029 -0.179,-0.081
     q   -0.081, -0.052 -0.139,-0.127
     q   -0.052, -0.087 -0.052,-0.220
     q    0.000, -0.127  0.046,-0.226
     m    4.864,  0.133
     q   -0.029, -0.035 -0.069,-0.052
     q   -0.035, -0.017 -0.081,-0.023
     q   -0.046, -0.006 -0.098,-0.006
     h   -0.226       v  0.359
     h    0.208
     q    0.040,  0.000  0.092, 0.000
     q    0.052, -0.006  0.092,-0.023
     q    0.052, -0.017  0.075,-0.052
     q    0.029, -0.040  0.029,-0.104
     q    0.000, -0.058 -0.023,-0.098
     m   -2.024,  0.573
     h    0.387
     l   -0.191, -0.492 z" />
 <path id="3" fill="#999" stroke="none" stroke-width="0.116"
  d="m -262.719,340.889
     q   -0.092,  0.064 -0.139, 0.156
     q   -0.046,  0.098 -0.046, 0.226
     q    0.000,  0.133  0.052, 0.220
     q    0.058,  0.075  0.139, 0.127
     q    0.087,  0.052  0.179, 0.081
     q    0.098,  0.029  0.179, 0.052
     q    0.081,  0.029  0.133, 0.075
     q    0.058,  0.035  0.058, 0.110
     q    0.000,  0.040 -0.023, 0.075
     q   -0.017,  0.035 -0.052, 0.052
     q   -0.035,  0.023 -0.075, 0.029
     q   -0.046,  0.012 -0.087, 0.012
     q   -0.092,  0.000 -0.174,-0.040
     q   -0.081, -0.040 -0.133,-0.104
     l   -0.249,  0.266
     q    0.110,  0.104  0.249, 0.156
     q    0.127,  0.040  0.289, 0.040
     q    0.116,  0.000  0.226,-0.029
     q    0.116, -0.029  0.197,-0.098
     q    0.081, -0.064  0.127,-0.162
     q    0.058, -0.098  0.058,-0.231
     q    0.000, -0.133 -0.058,-0.220
     q   -0.058, -0.087 -0.133,-0.133
     q   -0.081, -0.052 -0.179,-0.075
     q   -0.092, -0.023 -0.173,-0.052
     q   -0.081, -0.023 -0.139,-0.069
     q   -0.052, -0.040 -0.052,-0.104
     q    0.000, -0.046  0.023,-0.075
     q    0.023, -0.035  0.058,-0.052
     q    0.040, -0.017  0.081,-0.029
     q    0.035, -0.006  0.075,-0.006
     q    0.064,  0.000  0.133, 0.023
     q    0.081,  0.023  0.121, 0.075
     l    0.243, -0.260
     q   -0.110, -0.087 -0.231,-0.121
     q   -0.127, -0.046 -0.260,-0.046
     q   -0.116,  0.000 -0.231, 0.035
     q   -0.104,  0.035 -0.185, 0.098
     m    5.159, -0.087
     v    0.307       h  0.457
     v    1.272       h  0.347
     v   -1.272       h  0.451
     v   -0.307       h -1.255
     m   -0.416,  0.023
     q   -0.110, -0.023 -0.231,-0.023
     h   -0.607       v  1.579
     h    0.347       v -0.630
     h    0.168
     l    0.335,  0.630
     h    0.416
     l   -0.399, -0.665
     q    0.162, -0.029  0.254,-0.150
     q    0.081, -0.116  0.081,-0.289
     q    0.000, -0.133 -0.040,-0.231
     q   -0.052, -0.092 -0.133,-0.145
     q   -0.081, -0.052 -0.191,-0.075
     m   -0.087,  0.301
     q    0.040,  0.017  0.069, 0.052
     q    0.023,  0.040  0.023, 0.098
     q    0.000,  0.064 -0.029, 0.104
     q   -0.023,  0.035 -0.075, 0.052
     q   -0.040,  0.017 -0.092, 0.023
     q   -0.052,  0.000 -0.092, 0.000
     h   -0.208       v -0.359
     h    0.226
     q    0.052,  0.000  0.098, 0.006
     q    0.046,  0.006  0.081, 0.023
     m   -2.388, -0.017
     v   -0.307       h -1.249
     v    0.307       h  0.451
     v    1.272       h  0.347
     v   -1.272       h  0.451
     m    0.787, -0.307
     h   -0.289
     l   -0.682,  1.579
     h    0.376
     l    0.133, -0.335
     h    0.613
     l    0.145,  0.335
     h    0.387
     l   -0.682, -1.579
     m    0.035,  0.948
     h   -0.387
     l    0.197, -0.492 z" />
 <path id="4" fill="none" stroke="#202020" stroke-linecap="round"
       stroke-linejoin="round" stroke-width="0.463"
  d="m -264.720,341.601
     v   -0.075
     q    0.000, -1.226  0.867,-2.088
     q    0.862, -0.867  2.088,-0.867
     h    4.239
     q    1.232,  0.000  2.094, 0.867
     q    0.867,  0.862  0.867, 2.088
     v    0.075
     q   -0.040,  1.162 -0.867, 1.989
     q   -0.185,  0.191 -0.393, 0.335
     q   -0.746,  0.532 -1.700, 0.532
     h   -4.239
     q   -1.226,  0.000 -2.088,-0.867
     q   -0.827, -0.827 -0.862,-1.989" />
 <oath id="5" fill="none" stroke="#626262" stroke-linecap="round"
       stroke-linejoin="round" stroke-width="0.463"
  d="m -263.807,341.618
     v   -0.087
     q    0.000, -0.839  0.549,-1.428
     q    0.544, -0.590  1.313,-0.590
     h    4.603
     q    0.775,  0.000  1.319, 0.590
     q    0.544,  0.590  0.544, 1.428
     v    0.087
     q   -0.040,  0.769 -0.544, 1.313
     q   -0.543,  0.590 -1.319, 0.590
     h   -4.603
     q   -0.769,  0.000 -1.313,-0.590
     q   -0.503, -0.544 -0.538,-1.313" />
</svg>
