<?xml version="1.0" encoding="UTF-8" standalone="no"?>
<svg id="bsnes" height="24" version="1.1" viewBox="0 0 24 24" width="24"
     xmlns="http://www.w3.org/2000/svg" xmlns:svg="http://www.w3.org/2000/svg">
  <path id="path1" fill="currentColor" opacity="1" stroke="none"
     d="m 24,14.179155 c -0.104255,0.166071 -0.219402,0.301026 -0.310851,0.450481 -0.368394,0.602057 -0.86363,1.068492 -1.482699,1.402692 -0.287238,0.155063 -0.569429,0.334078 -0.876032,0.435058 -0.401743,0.132314 -0.824472,0.202392 -1.240021,0.290539 -0.157544,0.03342 -0.320219,0.04265 -0.489336,0.06402 -0.48538,-2.93603 -2.397235,-4.099085 -5.195375,-4.222922 -0.01747,-0.342597 -0.0011,-0.700905 0.134041,-1.050313 0.09758,-0.252322 0.159716,-0.52028 0.275776,-0.763043 0.152938,-0.319899 0.30325,-0.654869 0.525672,-0.924892 0.480983,-0.58392 1.063658,-1.067713 1.768225,-1.358574 0.614017,-0.253476 1.254034,-0.414627 1.929053,-0.467407 0.66898,-0.05231 1.302608,0.05943 1.938902,0.218896 0.70569,0.176849 1.326622,0.532415 1.877693,0.986945 0.436014,0.359632 0.793955,0.806392 1.046395,1.324222 0.01392,0.02856 0.04655,0.048 0.08451,0.05522 0.01404,1.167231 0.01404,2.35093 0.01404,3.55908 z" />
  <path id="path2" fill="currentColor" opacity="1" stroke="none"
     d="m 0,12.349798 c 0.2185596,-0.109532 0.449006,-0.172732 0.6534482,-0.283799 0.6118665,-0.33241 1.2706855,-0.506239 1.9540262,-0.568939 0.8312972,-0.07628 1.6679841,-0.169182 2.499552,-0.147583 0.9836781,0.02555 1.9734972,0.149054 2.8954659,0.523263 0.5971006,0.242351 1.1876527,0.529688 1.6077497,1.059652 0.386366,0.487407 0.288499,1.377305 -0.186116,1.785275 -0.8452782,0.726585 -1.8721814,1.058915 -2.9278091,1.235897 -0.8382513,0.140539 -1.7097724,0.140921 -2.563559,0.11298 C 3.1831319,16.042013 2.4168345,16.018354 1.6961246,15.762276 1.1279247,15.560387 0.5396062,15.396808 0.0187874,15.039133 -9.9540173e-8,14.150343 -9.9540173e-8,13.262296 0,12.349798 Z" />
  <path id="path3" fill="currentColor" opacity="1" stroke="none"
     d="m 14.884819,9.474951 c -0.03114,0.558187 -0.310568,0.992813 -0.595434,1.415711 -0.680085,1.009624 -1.67227,1.591572 -2.805997,1.942607 -0.337488,0.104497 -0.709162,0.09858 -1.09335,0.146794 C 10.327774,11.57703 9.780509,10.458291 8.6927633,9.617587 7.6253182,8.792571 6.4185592,8.42155 5.0804535,8.522615 5.1114215,7.544049 5.4225888,6.689572 6.0445774,5.976772 6.3473331,5.629814 6.7216385,5.33782 7.0923722,5.059304 7.7387751,4.573688 8.5021235,4.369394 9.28584,4.239452 c 0.952391,-0.157909 1.879583,-0.04004 2.760163,0.342517 0.469845,0.204115 0.965841,0.412673 1.349019,0.738149 0.7907,0.671628 1.43761,1.476896 1.519012,2.573934 0.03837,0.517021 -0.0091,1.040413 -0.02922,1.580899 z" />
  <path id="path4" fill="currentColor" opacity="1" stroke="none"
     d="M 8.8596433,18.49765 C 8.4721228,18.090769 8.2261811,17.656599 8.3998551,17.088247 8.5017437,16.754816 8.7163298,16.495456 8.9847497,16.292834 9.713463,15.742752 10.535793,15.432601 11.442118,15.285889 c 0.573609,-0.09285 1.143007,-0.16276 1.722321,-0.203078 1.014948,-0.07064 1.998813,0.06856 2.995082,0.247247 0.706964,0.126803 1.323891,0.42518 1.957942,0.707398 0.547789,0.243822 1.000216,1.002418 0.915906,1.589313 -0.05488,0.382031 -0.257314,0.711759 -0.608154,0.929301 -0.20046,0.124299 -0.368919,0.305673 -0.577309,0.410719 -0.688166,0.346898 -1.422088,0.569411 -2.177539,0.713084 -1.068405,0.203187 -2.149178,0.158092 -3.224481,0.09796 -0.750845,-0.04198 -1.470789,-0.261214 -2.184372,-0.506424 C 9.74878,19.095216 9.306962,18.816992 8.8596433,18.49765 Z" />
</svg>
