<?xml version="1.0" encoding="UTF-8" standalone="no"?>
<!--
  SPDX-License-Identifier: MIT

  SPDX-FileCopyrightText: © 2024, Peter J. Mello <admin@petermello.net>
-->
<svg xmlns="http://www.w3.org/2000/svg" viewBox="0 0 24 24">
  <path fill-rule="evenodd" transform="scale(.02344)" d="M732.72 226.496a259 259 0 0 0-15.376.01c-5.718.168-11.707.52-17.975 1.074-52.18 4.62-78.288 21.58-91.148 29.56-5.74 3.56-14.67 4.25-22.08 2.63-150.09-46.08-287.652-26.46-356.782-6.08C93.202 293.83 64.152 374.46 55.008 421.379c-.11.44-.184.806-.29 1.24-3.149 12.952-4.162 23.393-5.738 29.442-4.93 18.9-66.82 52.219-43.95 75.869 22.04 22.79 60.74 20.39 88.81 9.24 63.73-25.3 113.1-34.5 196.14-37.65h.95c7.73-.11 14.38-1.41 20.2 3.94 6.88 6.33 30.24 55.74 82.28 92.13 59.07 41.3 120.21 38.95 122.18 32.52 1.55-5.11-13.43-8.58-45.33-48.28-27.56-34.29-25.29-70.13 1.48-63.55.58.13 1.15.25 1.73.34 149.4 39.07 248.31 127.45 250.52 125.78.045-.034-.06-.339-.047-.433.004-.003.044.076.047.072 7.46-9.1-40.32-125.979-165.04-195.719-70.53-39.44-138.862-49.769-193.085-48.77-54.042.997-94.007 13.237-108.222 19.14-6.862-11.626 41.364-59.024 144.136-62.99 230.4-8.9 373.031 117.5 451.291 194.61 95.643 94.239 166.833 248.393 169.46 249.178v.004c0 .007.03.108.03.108v-.01c.01-.001.01-.02.016-.022 0 0 .042.079.045.078.014-.003 0-.154.016-.162 5.937-1.887-7.69-100.823-37.476-172.644-37.62-90.7-83.88-157.44-150.42-219.66a664.5 664.5 0 0 0-91.84-72.09c-4.842-3.325-10.656-7.794-14.227-13.89 19.238-44.292 92.223-44.452 94.75-48.722.017-.02.094-.017.106-.039 4.254-7.383-17.415-41.756-90.809-43.943zm289.901 571.15v.024l.022.01-.02-.033zM293.261 264.17c-12.505 1.994-24.159 4.255-34.849 6.656 10.69-2.4 22.344-4.662 34.85-6.656m331.35 7.187c-6.345 3.571-11.772 7.133-16.412 10.413 4.64-3.28 10.067-6.842 16.412-10.413M229.34 278.32c-10.069 2.97-19.38 6.12-28.319 9.352 8.94-3.231 18.248-6.382 28.319-9.352m-61.073 22.782c-7.22 3.36-14.106 6.784-20.439 10.296 6.335-3.512 13.216-6.935 20.44-10.296m-21.148 10.666c-6.663 3.718-12.739 7.522-18.482 11.365 5.745-3.844 11.816-7.646 18.482-11.365m-22.826 14.406c-4.194 2.942-8.163 5.907-11.873 8.892 3.711-2.987 7.676-5.948 11.873-8.892m-15.799 12.08c-4.318 3.65-8.37 7.316-12.039 10.988 3.668-3.673 7.72-7.337 12.04-10.988M95.71 349.947c-3.922 3.97-7.415 7.937-10.652 11.889 3.236-3.953 6.73-7.918 10.652-11.889m474.672 128.125c5.399 3.386 10.794 6.774 15.889 10.27-5.094-3.497-10.492-6.884-15.89-10.27m21.463 14.309c4.915 3.484 9.83 6.967 14.453 10.521-4.622-3.554-9.54-7.037-14.453-10.521m19.35 14.473c4.61 3.647 9.203 7.294 13.515 10.974-4.309-3.68-8.908-7.329-13.516-10.974m17.45 14.48c4.394 3.84 8.74 7.677 12.813 11.51-4.07-3.831-8.423-7.673-12.812-11.51m16.15 14.773c4.07 3.91 8.075 7.807 11.815 11.664-3.737-3.854-7.749-7.758-11.814-11.664m14.5 14.536c3.758 3.943 7.432 7.858 10.847 11.7-3.412-3.839-7.093-7.761-10.846-11.7m13.14 14.367c3.367 3.85 6.639 7.656 9.662 11.355-3.021-3.695-6.3-7.51-9.662-11.355m11.652 13.861c2.935 3.648 5.775 7.234 8.373 10.684-2.597-3.445-5.442-7.043-8.373-10.684m10.299 13.315c2.294 3.098 4.476 6.092 6.494 8.986a398 398 0 0 0-6.494-8.986m12.08 17.568c2.798 4.292 5.752 8.674 7.838 12.232-2.079-3.533-5.068-7.989-7.838-12.232m11.889 19.715c1.168 2.216 2.617 4.738 3.367 6.373-.75-1.62-2.223-4.207-3.367-6.373m278.933 52.792c2.344 6.959 4.65 13.91 6.645 20.632-1.994-6.721-4.302-13.676-6.645-20.631m8.315 26.71c1.828 6.41 3.641 12.814 5.158 18.826-1.516-6.01-3.331-12.42-5.158-18.826m6.6 25.004c1.347 5.59 2.7 11.2 3.777 16.261-1.077-5.06-2.431-10.676-3.778-16.261m5.212 23.62c.791 3.997 1.654 8.169 2.264 11.669-.61-3.5-1.473-7.675-2.264-11.668m3.736 21.196c.247 1.675.61 3.745.8 5.213-.191-1.47-.553-3.538-.8-5.213m1.655 13.81c.018.292.093.835.105 1.1-.013-.266-.087-.808-.105-1.1"/>
</svg>
