<?xml version="1.0" encoding="UTF-8" standalone="no"?>
<!--
  SPDX-License-Identifier: MIT

  SPDX-FileCopyrightText: © 2024, Peter J. Mello <admin@petermello.net>
-->
<svg version="1.1" id="zx81" x="0" y="0" viewBox="0 0 24 24" xml:space="preserve"
     xmlns="http://www.w3.org/2000/svg" xmlns:svg="http://www.w3.org/2000/svg">
  <path id="pathz" style="stroke-width: 0.1;" d="M 5.6e-8,14.663162 4.3800226,9.1295531 H 0.10814876 V 7.6154713 H 6.597071 V 9.0484416 L 2.1629741,14.663162 h 4.4431093 v 1.514082 H 5.6e-8 Z" />
  <path id="pathx" style="stroke-width: 0.1;" d="M 9.2377019,16.177244 H 7.1648517 L 9.9226436,11.815246 7.3000376,7.6154713 H 9.4359745 L 10.959069,10.4003 12.527225,7.6154713 h 2.063838 l -2.622606,4.1276757 2.784829,4.434097 h -2.162974 l -1.631243,-2.920015 z" />
  <path id="path8" style="stroke-width: 0.1;" d="m 15.537364,12.554262 c 0.216297,-0.387533 0.522719,-0.675929 0.937289,-0.86519 -0.405558,-0.270371 -0.67593,-0.56778 -0.793091,-0.883214 -0.126173,-0.315434 -0.180248,-0.612843 -0.180248,-0.8832144 0,-0.6128426 0.234322,-1.1355613 0.693954,-1.5681562 0.459632,-0.4325948 1.117537,-0.6488922 1.95569,-0.6488922 0.838152,0 1.496057,0.2162974 1.955689,0.6488922 0.459632,0.4325949 0.693954,0.9553136 0.693954,1.5681562 0,0.2793844 -0.06309,0.5677804 -0.180248,0.8832144 -0.126174,0.315434 -0.387533,0.585806 -0.793091,0.820128 0.41457,0.234322 0.730004,0.540743 0.937289,0.919264 0.207285,0.387533 0.315434,0.811115 0.315434,1.279759 0,0.711979 -0.261359,1.31581 -0.784078,1.811491 -0.522719,0.495682 -1.261735,0.748029 -2.199024,0.748029 -0.937289,0 -1.65828,-0.252347 -2.135937,-0.748029 -0.486669,-0.495681 -0.730003,-1.099512 -0.730003,-1.811491 -0.01802,-0.459632 0.09012,-0.883214 0.306421,-1.270747 z m 1.721367,2.144949 c 0.216297,0.22531 0.513706,0.342471 0.892227,0.342471 0.37852,0 0.675929,-0.117161 0.892226,-0.342471 0.216298,-0.225309 0.324446,-0.549756 0.324446,-0.964326 0,-0.432594 -0.108148,-0.75704 -0.324446,-0.98235 -0.216297,-0.22531 -0.513706,-0.333459 -0.883214,-0.333459 -0.369508,0 -0.666917,0.108149 -0.883214,0.333459 -0.216298,0.22531 -0.324447,0.549756 -0.324447,0.98235 -0.01802,0.41457 0.09012,0.730004 0.306422,0.964326 z m 0.09914,-3.839279 c 0.18926,0.189261 0.45062,0.288397 0.784078,0.288397 0.333459,0 0.594818,-0.09914 0.784078,-0.288397 0.180248,-0.18926 0.279384,-0.441607 0.279384,-0.748028 0,-0.3334586 -0.09012,-0.594818 -0.279384,-0.7840782 -0.180248,-0.1892603 -0.441607,-0.2793842 -0.784078,-0.2793842 -0.333458,0 -0.594818,0.090124 -0.784078,0.2793842 -0.18926,0.1892602 -0.279384,0.4506196 -0.279384,0.7840782 0,0.306421 0.09914,0.558768 0.279384,0.748028 z" />
  <path id="path1" style="stroke-width: 0.1;" d="M 24,16.177244 H 22.260608 V 7.8137439 H 24 Z" />
</svg>
